<svg xmlns="http://www.w3.org/2000/svg" viewBox="0 0 64 64">
  <defs>
    <linearGradient id="bg" x1="0" y1="0" x2="1" y2="1">
      <stop offset="0" stop-color="#1f5f98"/>
      <stop offset="1" stop-color="#071222"/>
    </linearGradient>
    <filter id="shadow" x="-20%" y="-20%" width="140%" height="140%">
      <feDropShadow dx="0" dy="2" stdDeviation="2" flood-color="#000" flood-opacity=".35"/>
    </filter>
  </defs>
  <rect width="64" height="64" rx="14" fill="url(#bg)"/>
  <circle cx="32" cy="32" r="22" fill="#f7fbff" filter="url(#shadow)"/>
  <path d="M21 13c7 9 7 29 0 38" fill="none" stroke="#e3454f" stroke-width="3" stroke-linecap="round"/>
  <path d="M43 13c-7 9-7 29 0 38" fill="none" stroke="#e3454f" stroke-width="3" stroke-linecap="round"/>
  <g stroke="#e3454f" stroke-width="2" stroke-linecap="round">
    <path d="M19 21l5 2M18 28l5 1M18 36l5-1M19 43l5-2"/>
    <path d="M45 21l-5 2M46 28l-5 1M46 36l-5-1M45 43l-5-2"/>
  </g>
  <text x="32" y="39" text-anchor="middle" font-family="Arial, Helvetica, sans-serif" font-weight="900" font-size="16" fill="#12355a">DX</text>
</svg>
